# AST/ASF file generated using VICON BodyLanguage
# -----------------------------------------------
:version 1.10
:name VICON
:units
  mass 1.0
  length 0.45
  angle deg
:documentation
   .ast/.asf automatically generated from VICON data using
   VICON BodyBuilder and BodyLanguage model FoxedUp or BRILLIANT.MOD
:root
   order TX TY TZ RX RY RZ
   axis XYZ
   position 0 0 0  
   orientation 0 0 0 
:bonedata
  begin
     id 1 
     name lhipjoint
     direction 0.621036 -0.695554 0.361275 
     length 2.46325 
     axis 0 0 0  XYZ
  end
  begin
     id 2 
     name lfemur
     direction 0.34202 -0.939693 0  
     length 6.54784  
     axis 0 0 20  XYZ
    dof rx ry rz
    limits (-160.0 20.0)
           (-70.0 70.0)
           (-60.0 70.0)
  end
  begin
     id 3 
     name ltibia
     direction 0.34202 -0.939693 0   
     length 7.84737   
     axis 0 0 20   XYZ
    dof rx
    limits (-10.0 170.0)
  end
  begin
     id 4 
     name lfoot
     direction 0.0790693 -0.217241 0.97291   
     length 2.59747   
     axis -90 7.62852e-016 20   XYZ
    dof rx rz
    limits (-45.0 90.0)
           (-70.0 20.0)
  end
  begin
     id 5 
     name ltoes
     direction 1.53572e-011 -4.21898e-011 1   
     length 1.29919   
     axis -90 7.62852e-016 20   XYZ
    dof rx
    limits (-90.0 20.0)
  end
  begin
     id 6 
     name rhipjoint
     direction -0.602353 -0.708375 0.367935   
     length 2.41867  
     axis 0 0 0  XYZ 
  end
  begin
     id 7 
     name rfemur
     direction -0.34202 -0.939693 0   
     length 6.92065   
     axis 0 0 -20   XYZ
    dof rx ry rz
    limits (-160.0 20.0)
           (-70.0 70.0)
           (-70.0 60.0)
  end
  begin
     id 8 
     name rtibia
     direction -0.34202 -0.939693 0   
     length 7.88883   
     axis 0 0 -20   XYZ
    dof rx
    limits (-10.0 170.0)
 end
 begin
     id 9 
     name rfoot
     direction -0.0768692 -0.211196 0.974416   
     length 2.43714  
     axis -90 -7.62852e-016 -20   XYZ
    dof rx rz
    limits (-45.0 90.0)
           (-20.0 70.0)
  end
  begin
     id 10 
     name rtoes
     direction -1.53575e-011 -4.21933e-011 1   
     length 1.22113   
     axis -90 -7.62852e-016 -20   XYZ
    dof rx
    limits (-90.0 20.0)
  end
  begin
     id 11 
     name lowerback
     direction 0.0197937 0.98943 -0.143655   
     length 2.16931   
     axis 0 0 0   XYZ
    dof rx ry rz
    limits (-20.0 45.0)
           (-30.0 30.0)
           (-30.0 30.0)
  end
  begin
     id 12 
     name upperback
     direction -0.00183968 0.999975 0.00684288   
     length 2.17221   
     axis 0 0 0   XYZ
    dof rx ry rz
    limits (-20.0 45.0)
           (-30.0 30.0)
           (-30.0 30.0)
  end
  begin
     id 13 
     name thorax
     direction -0.00950244 0.997208 0.0740685   
     length 2.22549   
     axis 0 0 0   XYZ
    dof rx ry rz
    limits (-20.0 45.0)
           (-30.0 30.0)
           (-30.0 30.0)
  end
  begin
     id 14 
     name lowerneck
     direction 0.0218238 0.996215 0.0841425   
     length 1.77269   
     axis 0 0 0   XYZ
    dof rx ry rz
    limits (-20.0 45.0)
           (-30.0 30.0)
           (-30.0 30.0)
  end
  begin
     id 15 
     name upperneck
     direction -0.00430652 0.994214 -0.107332   
     length 1.76534   
     axis 0 0 0   XYZ
    dof rx ry rz
    limits (-20.0 45.0)
           (-30.0 30.0)
           (-30.0 30.0)
  end
  begin
     id 16
     name head
     direction -0.00328946 0.998959 -0.0454998  
     length 1.82634  
     axis 0 0 0   XYZ
    dof rx ry rz
    limits (-20.0 45.0)
           (-30.0 30.0)
           (-30.0 30.0)
  end
  begin
     id 17 
     name lclavicle
     direction 0.970962 0.239191 0.00450212  
     length 3.84872  
     axis 0 0 0   XYZ
    dof ry rz
    limits (-20.0 10.0)
           (0.0 20.0)
  end
  begin
     id 18 
     name lhumerus
     direction 1 -4.48966e-011 5.74696e-028   
     length 5.22771   
     axis 180 -30 -90   XYZ
    dof rx ry rz
    limits (-60.0 90.0)
           (-90.0 90.0)
           (-90.0 90.0)
  end
  begin
     id 19
     name lradius
     direction 1 -4.4896e-011 4.25109e-027   
     length 3.45251   
     axis 180 -30 -90   XYZ
    dof rx
    limits (-10.0 170.0)
  end
  begin
     id 20
     name lwrist
     direction 1 -4.48971e-011 1.15382e-027   
     length 1.72626   
     axis -5.52449e-016 90 90   XYZ
    dof ry
    limits (-180.0 0.0)
 end
  begin
     id 21 
     name lhand
     direction 1 -4.49034e-011 2.30765e-027   
     length 0.552119   
     axis -1.47248e-015 90 90   XYZ
    dof rx rz
    limits (-90.0 90.0)
           (-45.0 45.0)
  end
  begin
     id 22 
     name lfingers
     direction 1 -4.48951e-011 4.61529e-027   
     length 0.445133   
     axis -2.94495e-015 90 90   XYZ
    dof rx
    limits (0.0 90.0)
  end
  begin
     id 23
     name lthumb
     direction 0.707107 -6.34991e-011 0.707107   
     length 0.639124   
     axis -90 45 2.85299e-015   XYZ
    dof rx rz
    limits (-45.0 45.0)
           (-45.0 45.0)
  end
  begin
     id 24 
     name rclavicle
     direction -0.97424 0.222511 -0.0366699   
     length 3.73439  
     axis 0 0 0   XYZ 
    dof ry rz
    limits (-10.0 20.0)
           (-20.0 0.0)
  end
  begin
     id 25 
     name rhumerus
     direction -1 -4.48956e-011 -4.97258e-028  
     length 5.2398   
     axis 180 30 90   XYZ
    dof rx ry rz
    limits (-90.0 60.0)
           (-90.0 90.0)
           (-90.0 90.0)
  end
  begin
     id 26 
     name rradius
     direction -1 -4.4897e-011 -1.72611e-027   
     length 3.48042   
     axis 180 30 90   XYZ
    dof rx
    limits (-10.0 170.0)
  end
  begin
     id 27 
     name rwrist
     direction -1 -4.48976e-011 1.15382e-027   
     length 1.74021   
     axis -5.52449e-016 -90 -90   XYZ
    dof ry
    limits (-180.0 0.0)
  end
  begin
     id 28
     name rhand
     direction -1 -4.48963e-011 2.30765e-027   
     length 0.618713   
     axis -1.47248e-015 -90 -90   XYZ
    dof rx rz
    limits (-90.0 90.0)
           (-45.0 45.0)
  end
  begin
     id 29
     name rfingers
     direction -1 -4.4888e-011 4.61529e-027   
     length 0.498823   
     axis -2.94495e-015 -90 -90   XYZ
    dof rx
    limits (0.0 90.0)
  end
  begin
     id 30
     name rthumb
     direction -0.707107 -6.34968e-011 0.707107   
     length 0.716213   
     axis -90 -45 -2.85299e-015   XYZ
    dof rx rz
    limits (-45.0 45.0)
           (-45.0 45.0)
  end
:hierarchy
  begin
    root lhipjoint rhipjoint lowerback
    lhipjoint lfemur
    lfemur ltibia
    ltibia lfoot
    lfoot ltoes
    rhipjoint rfemur
    rfemur rtibia
    rtibia rfoot
    rfoot rtoes
    lowerback upperback
    upperback thorax
    thorax lowerneck lclavicle rclavicle
    lowerneck upperneck
    upperneck head
    lclavicle lhumerus
    lhumerus lradius
    lradius lwrist
    lwrist lhand lthumb
    lhand lfingers
    rclavicle rhumerus
    rhumerus rradius
    rradius rwrist
    rwrist rhand rthumb
    rhand rfingers
  end

#!OML:ASF G:\JayActor3\Patient Classification 1\Patient 1\Session 5\male.ASF
:FULLY-SPECIFIED
:DEGREES
280
root -26.1838 17.1284 -6.47269 -141.557 81.847 -132.716
lowerback 9.12226 -1.33567 11.0557
upperback 3.20009 -0.604605 1.38717
thorax -1.85894 -0.204871 -4.69312
lowerneck -2.75103 -0.949592 3.11079
upperneck 4.42774 -1.32676 -1.53237
head 1.82083 -0.639408 -1.04201
rclavicle 1.86609e-014 1.66979e-014
rhumerus -38.9322 -9.41134 -82.9701
rradius 30.4618
rwrist 1.2233
rhand -20.5514 -10.7135
rfingers 7.12502
rthumb 5.8075 -40.614
lclavicle 1.86609e-014 1.66979e-014
lhumerus -32.1953 24.5927 73.9812
lradius 14.3574
lwrist 7.52294
lhand -20.1435 11.4821
lfingers 7.12502
lthumb 6.20123 41.3713
rfemur -2.35793 0.218566 32.1266
rtibia 19.53
rfoot -17.7068 -11.4469
rtoes -4.7029
lfemur -32.115 22.3513 -5.28852
ltibia 106.941
lfoot 16.6807 -9.31429
ltoes 0.257569
281
root -26.1274 17.147 -6.47625 -142.484 81.7592 -133.542
lowerback 9.19183 -1.33084 11.0384
upperback 3.30641 -0.590492 1.43324
thorax -1.78268 -0.187455 -4.63639
lowerneck -2.76665 -0.987897 3.12246
upperneck 4.31975 -1.38068 -1.52074
head 1.7873 -0.667005 -1.04058
rclavicle -6.21202e-016 2.18663e-014
rhumerus -38.7189 -9.39724 -82.9309
rradius 30.487
rwrist 1.21571
rhand -20.567 -10.7324
rfingers 7.12502
rthumb 5.7924 -40.6332
lclavicle -6.21202e-016 2.18663e-014
lhumerus -32.1443 24.5031 74.1243
lradius 14.4369
lwrist 7.64056
lhand -19.9502 11.4012
lfingers 7.12502
lthumb 6.38788 41.2849
rfemur -1.62512 0.136135 32.1144
rtibia 18.7384
rfoot -17.3844 -11.6445
rtoes -4.31014
lfemur -34.5859 23.3729 -5.1446
ltibia 109.543
lfoot 15.827 -10.1159
ltoes 0.254198
282
root -26.0713 17.1659 -6.4796 -143.378 81.6852 -134.363
lowerback 9.23748 -1.32815 10.9918
upperback 3.40189 -0.585341 1.47449
thorax -1.70606 -0.175445 -4.56761
lowerneck -2.77102 -1.02107 3.13827
upperneck 4.2024 -1.4277 -1.50514
head 1.74898 -0.691053 -1.0382
rclavicle 1.18028e-015 -3.97569e-015
rhumerus -38.5095 -9.40301 -82.884
rradius 30.4882
rwrist 1.23558
rhand -20.6024 -10.731
rfingers 7.12502
rthumb 5.75823 -40.6328
lclavicle 1.18028e-015 -3.97569e-015
lhumerus -32.1309 24.3411 74.2844
lradius 14.5519
lwrist 7.79673
lhand -19.7518 11.3834
lfingers 7.12502
lthumb 6.57943 41.2612
rfemur -0.92942 0.102317 32.1074
rtibia 17.9472
rfoot -16.9833 -11.8992
rtoes -3.6843
lfemur -37.0479 24.4857 -5.02837
ltibia 112.106
lfoot 14.6909 -10.8938
ltoes -0.171334
283
root -26.0149 17.1847 -6.48304 -144.162 81.612 -135.095
lowerback 9.27663 -1.33207 10.9415
upperback 3.47798 -0.589778 1.51192
thorax -1.64788 -0.170333 -4.49964
lowerneck -2.76282 -1.04889 3.148
upperneck 4.09579 -1.46745 -1.47093
head 1.7122 -0.710996 -1.02865
rclavicle -1.98785e-015 1.90833e-014
rhumerus -38.3257 -9.41757 -82.8367
rradius 30.4758
rwrist 1.26682
rhand -20.6449 -10.7182
rfingers 7.12502
rthumb 5.7172 -40.6211
lclavicle -1.98785e-015 1.90833e-014
lhumerus -32.1709 24.1037 74.4505
lradius 14.7007
lwrist 7.98519
lhand -19.5766 11.427
lfingers 7.12502
lthumb 6.74855 41.2995
rfemur -0.251381 0.124452 32.1261
rtibia 17.1396
rfoot -16.4962 -12.2192
rtoes -2.81666
lfemur -39.4805 25.701 -4.90712
ltibia 114.642
lfoot 13.2706 -11.6364
ltoes -0.822378
284
root -25.9586 17.2033 -6.48668 -144.778 81.527 -135.672
lowerback 9.32644 -1.34519 10.9109
upperback 3.52696 -0.602218 1.54585
thorax -1.6255 -0.172321 -4.44533
lowerneck -2.73791 -1.07535 3.15549
upperneck 4.00934 -1.50515 -1.41771
head 1.67913 -0.729264 -1.01265
rclavicle -1.29086e-014 -2.78299e-015
rhumerus -38.1795 -9.44589 -82.79
rradius 30.4505
rwrist 1.30989
rhand -20.6854 -10.7052
rfingers 7.12502
rthumb 5.6781 -40.6091
lclavicle -1.29086e-014 -2.78299e-015
lhumerus -32.2702 23.7984 74.6083
lradius 14.8715
lwrist 8.19555
lhand -19.4222 11.5293
lfingers 7.12502
lthumb 6.89756 41.3969
rfemur 0.418499 0.203313 32.1877
rtibia 16.3027
rfoot -15.9137 -12.6138
rtoes -1.7447
lfemur -41.8738 27.0446 -4.74747
ltibia 117.165
lfoot 11.5827 -12.3701
ltoes -1.66637
285
root -25.902 17.2218 -6.4904 -145.288 81.4207 -136.157
lowerback 9.38786 -1.37144 10.8987
upperback 3.54826 -0.627829 1.57629
thorax -1.64084 -0.184046 -4.40329
lowerneck -2.71323 -1.10027 3.15006
upperneck 3.96456 -1.54094 -1.33593
head 1.65977 -0.745749 -0.985791
rclavicle -7.21837e-015 -2.46493e-014
rhumerus -38.0691 -9.48019 -82.7484
rradius 30.4115
rwrist 1.35528
rhand -20.7133 -10.6939
rfingers 7.12502
rthumb 5.65117 -40.5985
lclavicle -7.21837e-015 -2.46493e-014
lhumerus -32.4213 23.4611 74.7416
lradius 15.043
lwrist 8.40345
lhand -19.2524 11.6069
lfingers 7.12502
lthumb 7.0615 41.4691
rfemur 1.08557 0.334551 32.2925
rtibia 15.4284
rfoot -15.2366 -13.0903
rtoes -0.495488
lfemur -44.224 28.5315 -4.54092
ltibia 119.678
lfoot 9.70848 -13.0895
ltoes -2.4612
286
root -25.8453 17.2399 -6.49422 -145.676 81.2992 -136.534
lowerback 9.4533 -1.40642 10.9001
upperback 3.54794 -0.662399 1.60526
thorax -1.68262 -0.202569 -4.36923
lowerneck -2.68483 -1.12381 3.14381
upperneck 3.95257 -1.57484 -1.24304
head 1.65044 -0.760708 -0.955566
rclavicle -9.23106e-015 7.55382e-015
rhumerus -37.989 -9.52071 -82.7092
rradius 30.3636
rwrist 1.40435
rhand -20.7225 -10.692
rfingers 7.12502
rthumb 5.64232 -40.5969
lclavicle -9.23106e-015 7.55382e-015
lhumerus -32.6068 23.1479 74.8321
lradius 15.184
lwrist 8.5729
lhand -19.0899 11.6676
lfingers 7.12502
lthumb 7.21842 41.5245
rfemur 1.75551 0.523995 32.4397
rtibia 14.5109
rfoot -14.4624 -13.6533
rtoes 0.853668
lfemur -46.5118 30.2069 -4.26586
ltibia 122.187
lfoot 7.73196 -13.821
ltoes -2.84366
287
root -25.7884 17.2571 -6.49794 -146.047 81.1597 -136.903
lowerback 9.51485 -1.45189 10.9033
upperback 3.53354 -0.710941 1.6303
thorax -1.73926 -0.229533 -4.33854
lowerneck -2.66466 -1.14491 3.14424
upperneck 3.97321 -1.60577 -1.15052
head 1.65315 -0.773758 -0.927
rclavicle -3.6154e-015 -7.95139e-015
rhumerus -37.9259 -9.56816 -82.6768
rradius 30.304
rwrist 1.4555
rhand -20.7171 -10.6912
rfingers 7.12502
rthumb 5.64751 -40.596
lclavicle -3.6154e-015 -7.95139e-015
lhumerus -32.81 22.8985 74.863
lradius 15.2731
lwrist 8.67708
lhand -18.9444 11.6901
lfingers 7.12502
lthumb 7.35887 41.5422
rfemur 2.43595 0.774652 32.6195
rtibia 13.5418
rfoot -13.6295 -14.3076
rtoes 2.22038
lfemur -48.7332 32.0954 -3.91766
ltibia 124.695
lfoot 5.7245 -14.5865
ltoes -2.84149
288
root -25.7316 17.2733 -6.5015 -146.42 81.013 -137.283
lowerback 9.5714 -1.50513 10.8983
upperback 3.51027 -0.771263 1.64975
thorax -1.8043 -0.263346 -4.30771
lowerneck -2.64955 -1.15988 3.15054
upperneck 4.01463 -1.62874 -1.0608
head 1.66362 -0.78256 -0.900457
rclavicle 4.4975e-015 -3.57812e-015
rhumerus -37.8778 -9.61612 -82.655
rradius 30.241
rwrist 1.50626
rhand -20.7145 -10.6853
rfingers 7.12502
rthumb 5.65001 -40.59
lclavicle 4.4975e-015 -3.57812e-015
lhumerus -33.0196 22.7618 74.8136
lradius 15.289
lwrist 8.68405
lhand -18.8056 11.6815
lfingers 7.12502
lthumb 7.49276 41.5288
rfemur 3.14023 1.09937 32.8218
rtibia 12.5127
rfoot -12.7588 -15.0547
rtoes 3.53267
lfemur -50.8664 34.2404 -3.47906
ltibia 127.2
lfoot 3.74677 -15.4192
ltoes -2.44941
289
root -25.6747 17.2883 -6.50505 -146.852 80.8636 -137.724
lowerback 9.61727 -1.56488 10.8796
upperback 3.49037 -0.843653 1.66101
thorax -1.86167 -0.302772 -4.27649
lowerneck -2.64878 -1.16723 3.15556
upperneck 4.06611 -1.64198 -0.971634
head 1.68012 -0.786434 -0.873953
rclavicle -9.06955e-015 2.5842e-014
rhumerus -37.8324 -9.66899 -82.6444
rradius 30.1784
rwrist 1.55873
rhand -20.7029 -10.6815
rfingers 7.12502
rthumb 5.66121 -40.5859
lclavicle -9.06955e-015 2.5842e-014
lhumerus -33.2201 22.7556 74.6808
lradius 15.23
lwrist 8.57874
lhand -18.7098 11.6754
lfingers 7.12502
lthumb 7.58529 41.5194
rfemur 3.88703 1.50118 33.0328
rtibia 11.416
rfoot -11.8974 -15.8774
rtoes 4.77485
lfemur -52.8713 36.6792 -2.92137
ltibia 129.694
lfoot 1.79788 -16.3569
ltoes -1.9143
